<svg id="visual" viewBox="0 0 700 300" width="700" height="300" xmlns="http://www.w3.org/2000/svg" xmlns:xlink="http://www.w3.org/1999/xlink" version="1.1"><rect x="0" y="0" width="700" height="300" fill="#060c23"></rect><path d="M0 150L23.3 150.3C46.7 150.7 93.3 151.3 140 147.3C186.7 143.3 233.3 134.7 280 137.5C326.7 140.3 373.3 154.7 420 162.3C466.7 170 513.3 171 560 165.7C606.7 160.3 653.3 148.7 676.7 142.8L700 137L700 301L676.7 301C653.3 301 606.7 301 560 301C513.3 301 466.7 301 420 301C373.3 301 326.7 301 280 301C233.3 301 186.7 301 140 301C93.3 301 46.7 301 23.3 301L0 301Z" fill="#1c263d" stroke-linecap="round" stroke-linejoin="miter"></path></svg>