<svg id="visual" viewBox="0 0 1920 200" width="1920" height="200" xmlns="http://www.w3.org/2000/svg" xmlns:xlink="http://www.w3.org/1999/xlink" version="1.1"><rect x="0" y="0" width="1920" height="200" fill="#060c23"></rect><path d="M0 112L35.5 103.3C71 94.7 142 77.3 213.2 69C284.3 60.7 355.7 61.3 426.8 61C498 60.7 569 59.3 640 71.8C711 84.3 782 110.7 853.2 112.8C924.3 115 995.7 93 1066.8 81.5C1138 70 1209 69 1280 70.3C1351 71.7 1422 75.3 1493.2 78.8C1564.3 82.3 1635.7 85.7 1706.8 84.2C1778 82.7 1849 76.3 1884.5 73.2L1920 70L1920 201L1884.5 201C1849 201 1778 201 1706.8 201C1635.7 201 1564.3 201 1493.2 201C1422 201 1351 201 1280 201C1209 201 1138 201 1066.8 201C995.7 201 924.3 201 853.2 201C782 201 711 201 640 201C569 201 498 201 426.8 201C355.7 201 284.3 201 213.2 201C142 201 71 201 35.5 201L0 201Z" fill="#1c263d" stroke-linecap="round" stroke-linejoin="miter"></path></svg>