<?xml version="1.0" encoding="utf-8"?>
<!-- Generated by IcoMoon.io -->
<svg version="1.1" xmlns="http://www.w3.org/2000/svg" xmlns:xlink="http://www.w3.org/1999/xlink" width="624" viewBox="0 0 624 24">
<symbol id="chevron-down" viewBox="0 0 24 24" x="0" y="0">
<path d="M5.293 9.707l6 6c0.391 0.391 1.024 0.391 1.414 0l6-6c0.391-0.391 0.391-1.024 0-1.414s-1.024-0.391-1.414 0l-5.293 5.293-5.293-5.293c-0.391-0.391-1.024-0.391-1.414 0s-0.391 1.024 0 1.414z"></path>
</symbol>
<symbol id="twitter" viewBox="0 0 38 39" fill="none" xmlns="http://www.w3.org/2000/svg">
    <path d="M24.5062 9.57806C23.3208 9.57786 22.1827 10.0429 21.3366 10.8732C20.4906 11.7035 20.0042 12.8326 19.9822 14.0178L19.9385 16.4748C19.9361 16.6069 19.9059 16.7369 19.8497 16.8565C19.7935 16.976 19.7126 17.0823 19.6125 17.1683C19.5123 17.2544 19.395 17.3182 19.2683 17.3557C19.1417 17.3932 19.0086 17.4035 18.8777 17.3859L16.441 17.0536C13.2383 16.6168 10.1682 15.1426 7.22136 12.6887C6.29004 17.8523 8.11056 21.4294 12.4988 24.189L15.2242 25.9019C15.3534 25.9832 15.4608 26.0949 15.537 26.2273C15.6132 26.3596 15.6558 26.5086 15.6612 26.6612C15.6666 26.8138 15.6346 26.9654 15.5679 27.1028C15.5012 27.2402 15.402 27.3592 15.2788 27.4494L12.7952 29.2653C14.2726 29.3589 15.675 29.2933 16.8388 29.0625C24.1988 27.5929 29.0926 22.0549 29.0926 12.9196C29.0926 12.1739 27.5123 9.57806 24.5062 9.57806ZM16.8622 13.9617C16.8894 12.4579 17.3596 10.9956 18.214 9.75781C19.0684 8.52003 20.2689 7.56179 21.6653 7.00307C23.0616 6.44436 24.5918 6.30999 26.0642 6.61679C27.5366 6.92359 28.8857 7.65793 29.9428 8.72786C31.0519 8.72006 31.9957 9.00086 34.1048 7.7201C33.5838 10.2785 33.3248 11.3908 32.2126 12.918C32.2126 24.838 24.8852 30.6365 17.4487 32.1201C12.3522 33.1372 4.93752 31.4664 2.81592 29.2465C3.897 29.1639 8.2962 28.6912 10.839 26.8285C8.6862 25.4089 0.124918 20.3701 5.75184 6.82622C8.39292 9.91034 11.0714 12.0085 13.7858 13.1239C15.5908 13.8649 16.0354 13.8493 16.8637 13.9632L16.8622 13.9617Z" fill="white"/>
</symbol>
<symbol id="linkedin" viewBox="0 0 38 38" fill="none" xmlns="http://www.w3.org/2000/svg">
    <path d="M10.8264 7.79978C10.826 8.62726 10.4969 9.42068 9.9115 10.0055C9.32609 10.5903 8.53234 10.9186 7.70487 10.9182C6.87739 10.9178 6.08397 10.5887 5.49915 10.0033C4.91433 9.41789 4.58601 8.62414 4.58643 7.79666C4.58684 6.96919 4.91595 6.17577 5.50136 5.59095C6.08676 5.00613 6.88051 4.67781 7.70799 4.67822C8.53546 4.67864 9.32888 5.00775 9.9137 5.59315C10.4985 6.17856 10.8268 6.97231 10.8264 7.79978ZM10.92 13.2286H4.68003V32.7598H10.92V13.2286ZM20.7792 13.2286H14.5704V32.7598H20.7168V22.5106C20.7168 16.801 28.158 16.2706 28.158 22.5106V32.7598H34.32V20.389C34.32 10.7638 23.3064 11.1226 20.7168 15.8494L20.7792 13.2286Z" fill="white"/>
</symbol>
<symbol id="instagram" viewBox="0 0 36 37" fill="none" xmlns="http://www.w3.org/2000/svg">
    <path d="M13.5751 33.7301H22.5451C30.0201 33.7301 33.0101 30.7401 33.0101 23.2651V14.2951C33.0101 6.82008 30.0201 3.83008 22.5451 3.83008H13.5751C6.10011 3.83008 3.11011 6.82008 3.11011 14.2951V23.2651C3.11011 30.7401 6.10011 33.7301 13.5751 33.7301Z" stroke="white" stroke-width="2.4" stroke-linecap="round" stroke-linejoin="round"/>
    <path d="M18.0601 24.0124C18.7473 24.0124 19.4277 23.877 20.0625 23.6141C20.6974 23.3511 21.2742 22.9657 21.7601 22.4798C22.246 21.9939 22.6314 21.4171 22.8943 20.7823C23.1573 20.1474 23.2926 19.467 23.2926 18.7799C23.2926 18.0927 23.1573 17.4123 22.8943 16.7775C22.6314 16.1426 22.246 15.5658 21.7601 15.0799C21.2742 14.594 20.6974 14.2086 20.0625 13.9457C19.4277 13.6827 18.7473 13.5474 18.0601 13.5474C16.6724 13.5474 15.3415 14.0986 14.3602 15.0799C13.3789 16.0612 12.8276 17.3921 12.8276 18.7799C12.8276 20.1676 13.3789 21.4985 14.3602 22.4798C15.3415 23.4611 16.6724 24.0124 18.0601 24.0124Z" stroke="white" stroke-width="2.4" stroke-linecap="round" stroke-linejoin="round"/>
    <path d="M26.4858 11.3047H26.5036" stroke="white" stroke-width="2.4" stroke-linecap="round" stroke-linejoin="round"/>
</symbol>
<symbol id="location" viewBox="0 -2 34 34">
    <path d="M16 0c-5.523 0-10 4.477-10 10 0 10 10 22 10 22s10-12 10-22c0-5.523-4.477-10-10-10zM16 16c-3.314 0-6-2.686-6-6s2.686-6 6-6 6 2.686 6 6-2.686 6-6 6z"></path>
</symbol>
<symbol id="mail" viewBox="0 0 24 24">
    <path d="M3 7.921l8.427 5.899c0.34 0.235 0.795 0.246 1.147 0l8.426-5.899v10.079c0 0.272-0.11 0.521-0.295 0.705s-0.433 0.295-0.705 0.295h-16c-0.272 0-0.521-0.11-0.705-0.295s-0.295-0.433-0.295-0.705zM1 5.983c0 0.010 0 0.020 0 0.030v11.987c0 0.828 0.34 1.579 0.88 2.12s1.292 0.88 2.12 0.88h16c0.828 0 1.579-0.34 2.12-0.88s0.88-1.292 0.88-2.12v-11.988c0-0.010 0-0.020 0-0.030-0.005-0.821-0.343-1.565-0.88-2.102-0.541-0.54-1.292-0.88-2.12-0.88h-16c-0.828 0-1.579 0.34-2.12 0.88-0.537 0.537-0.875 1.281-0.88 2.103zM20.894 5.554l-8.894 6.225-8.894-6.225c0.048-0.096 0.112-0.183 0.188-0.259 0.185-0.185 0.434-0.295 0.706-0.295h16c0.272 0 0.521 0.11 0.705 0.295 0.076 0.076 0.14 0.164 0.188 0.259z"></path>
</symbol>
<symbol id="phone" viewBox="0 0 46 46">
    <path d="M44 36.293C44 37.049 43.8317 37.826 43.4742 38.582C43.1167 39.338 42.654 40.052 42.0441 40.724C41.0135 41.858 39.8778 42.677 38.5949 43.202C37.333 43.727 35.966 44 34.4937 44C32.3485 44 30.0561 43.496 27.6375 42.467C25.2188 41.438 22.8002 40.052 20.4026 38.309C17.984 36.545 15.6915 34.592 13.5043 32.429C11.338 30.245 9.38207 27.956 7.63645 25.562C5.91187 23.168 4.52379 20.774 3.51427 18.401C2.50476 16.007 2 13.718 2 11.534C2 10.106 2.25238 8.741 2.75714 7.481C3.26189 6.2 4.06109 5.024 5.17576 3.974C6.52178 2.651 7.99399 2 9.55033 2C10.1392 2 10.7281 2.126 11.2539 2.378C11.8007 2.63 12.2844 3.008 12.663 3.554L17.5423 10.421C17.9209 10.946 18.1943 11.429 18.3836 11.891C18.5729 12.332 18.678 12.773 18.678 13.172C18.678 13.676 18.5308 14.18 18.2364 14.663C17.9629 15.146 17.5633 15.65 17.0586 16.154L15.4602 17.813C15.2288 18.044 15.1237 18.317 15.1237 18.653C15.1237 18.821 15.1447 18.968 15.1868 19.136C15.2499 19.304 15.313 19.43 15.355 19.556C15.7336 20.249 16.3856 21.152 17.311 22.244C18.2574 23.336 19.2669 24.449 20.3605 25.562C21.4962 26.675 22.5899 27.704 23.7046 28.649C24.7982 29.573 25.7026 30.203 26.4176 30.581C26.5228 30.623 26.649 30.686 26.7962 30.749C26.9644 30.812 27.1327 30.833 27.322 30.833C27.6795 30.833 27.9529 30.707 28.1843 30.476L29.7827 28.901C30.3085 28.376 30.8132 27.977 31.2969 27.725C31.7807 27.431 32.2644 27.284 32.7902 27.284C33.1898 27.284 33.6104 27.368 34.0731 27.557C34.5358 27.746 35.0195 28.019 35.5453 28.376L42.5068 33.311C43.0536 33.689 43.4322 34.13 43.6635 34.655C43.8738 35.18 44 35.705 44 36.293Z" stroke-width="4" stroke-miterlimit="10"/>
</symbol>
<symbol id="right" viewBox="0 0 21 35" xmlns="http://www.w3.org/2000/svg">
    <path d="M3 3.06836L17.6321 17.7005" stroke-width="5" stroke-linecap="round"/>
    <path d="M3.33228 32L17.558 17.7743" stroke-width="5" stroke-linecap="round"/>
</symbol>
<symbol id="left" viewBox="0 0 21 35" xmlns="http://www.w3.org/2000/svg">
    <path d="M17.6321 3L2.99995 17.6321" stroke-width="5" stroke-linecap="round"/>
    <path d="M17.2998 31.9316L3.07412 17.706" stroke-width="5" stroke-linecap="round"/>
</symbol>
<symbol id="office" viewBox="0 0 32 32">
<path d="M0 32h16v-32h-16v32zM10 4h4v4h-4v-4zM10 12h4v4h-4v-4zM10 20h4v4h-4v-4zM2 4h4v4h-4v-4zM2 12h4v4h-4v-4zM2 20h4v4h-4v-4zM18 10h14v2h-14zM18 32h4v-8h6v8h4v-18h-14z"></path>
</symbol>
</svg>
